<svg width="120" height="78" viewBox="0 0 120 78" fill="none" xmlns="http://www.w3.org/2000/svg">
<path d="M49.435 0.209961C47.535 0.209961 47.4 0.224961 46.355 0.739961C45.3509 1.25542 44.4745 1.98831 43.7894 2.88526C43.1044 3.78221 42.628 4.82065 42.395 5.92496C42.145 7.21996 42.165 42.73 42.41 43.89C42.975 46.525 45.01 48.69 47.595 49.39C51.325 50.415 55.15 48.265 56.325 44.505C56.625 43.545 56.64 42.68 56.64 24.805C56.64 6.66996 56.625 6.08996 56.31 5.07996C56.0171 4.10587 55.5157 3.20725 54.8405 2.44654C54.1652 1.68583 53.3324 1.0813 52.4 0.674961C51.505 0.244961 51.26 0.209961 49.435 0.209961ZM70.64 7.09996C66.065 7.06996 62.525 11.47 63.68 15.95C64.065 17.35 64.695 18.415 65.785 19.425C66.91 20.47 68.305 21.18 69.56 21.33C72.745 21.71 75.69 20.185 77.085 17.42C79.37 12.885 76.22 7.47996 71.085 7.11996C70.9369 7.11001 70.7884 7.10001 70.64 7.09996ZM91.845 7.14996C90.885 7.14996 89.93 7.28496 89.275 7.54996C87.385 8.29496 85.81 9.89996 85.1 11.805L84.72 12.8V32.18C84.72 53.96 84.635 52.535 85.98 55.42C87.93 59.675 91.94 62.805 96.365 63.57C96.795 63.6349 101.135 63.685 106.005 63.685L114.865 63.65L115.99 63.1199C117.491 62.3571 118.723 61.1533 119.52 59.67C119.97 58.73 120 58.565 120 56.61C120 54.67 119.965 54.475 119.535 53.595C118.807 52.1195 117.614 50.9247 116.14 50.195L114.88 49.57L107.745 49.485C99.91 49.405 100.105 49.42 99.43 48.375C99.145 47.965 99.13 46.785 99.045 30.275L98.965 12.63L98.585 11.72C98.2072 10.7885 97.648 9.94143 96.9398 9.22811C96.2317 8.51479 95.3887 7.94944 94.46 7.56496C93.6199 7.27222 92.7344 7.13169 91.845 7.14996ZM28.425 14.165C26.6578 14.1276 24.9394 14.7462 23.6014 15.9013C22.2635 17.0564 21.4008 18.6662 21.18 20.42C21.11 21.07 21.045 25.905 21.03 31.19C21.03 40.535 21.015 40.815 20.7 41.34C20.085 42.355 19.92 42.37 12.7 42.37C5.67498 42.37 5.37498 42.405 3.59998 43.3C2.52998 43.85 1.24998 45.2 0.604978 46.5C0.124978 47.475 0.0749777 47.755 0.0249777 49.31C-0.0400223 50.9 -0.0100223 51.135 0.439978 52.21C1.26998 54.28 3.28998 56.005 5.53998 56.55C6.15498 56.715 8.48998 56.75 14.9 56.715C23.065 56.68 23.48 56.665 24.69 56.315C28.98 55.095 32.16 52.475 34.05 48.585C35.44 45.715 35.44 45.8 35.44 32.15C35.44 21.05 35.425 20.145 35.14 19.23C34.6928 17.7884 33.8039 16.5239 32.599 15.615C31.394 14.7061 29.9339 14.1989 28.425 14.165ZM70.455 28.295C69.3728 28.326 68.3108 28.5958 67.345 29.085C65.635 29.935 64.065 31.985 63.615 33.94C63.5 34.39 63.435 38.56 63.435 44.775C63.435 54.495 63.42 54.895 63.1 55.405C62.475 56.455 62.44 56.455 55.535 56.455C52.085 56.455 48.84 56.515 48.31 56.615C44.5 57.23 41.72 61.055 42.38 64.7499C42.63 66.1899 43.46 67.7999 44.435 68.7599C45.33 69.6199 46.14 70.1 47.535 70.545C48.375 70.8299 49.135 70.8449 57.135 70.81C67.045 70.7599 67.045 70.76 69.975 69.29C72.825 67.865 74.915 65.74 76.355 62.83C77.845 59.83 77.845 59.895 77.845 46.23C77.845 35.13 77.83 34.385 77.53 33.445C77.0793 31.9291 76.1425 30.6035 74.8639 29.6728C73.5853 28.7421 72.036 28.2579 70.455 28.295ZM84.67 63.595C83.3389 63.5978 82.0359 63.9785 80.9127 64.6928C79.7894 65.4072 78.8921 66.4257 78.325 67.63C77.775 68.7599 77.76 68.84 77.76 70.78C77.76 72.7 77.775 72.7999 78.31 73.81C79.255 75.615 80.345 76.625 82.3 77.435C83.11 77.77 83.46 77.82 84.965 77.785C86.575 77.7349 86.805 77.685 87.865 77.17C91.13 75.57 92.715 71.87 91.595 68.525C91.1222 67.0691 90.1938 65.8038 88.9468 64.9161C87.6998 64.0284 86.2004 63.5652 84.67 63.595Z" fill="#7D7D7D"/>
</svg>
