<svg width="120" height="34" viewBox="0 0 120 34" fill="none" xmlns="http://www.w3.org/2000/svg">
<path d="M44.295 0.729891C42.295 0.809891 40.28 0.629889 38.285 0.819889C34.8 4.99489 31.32 9.16989 27.87 13.3799C29.95 16.1299 32.27 18.6799 34.345 21.4299C31.705 21.4399 29.065 21.3949 26.43 21.4599C25.745 21.0299 25.14 20.4249 25.25 19.5399C25.215 13.2849 25.26 7.02489 25.23 0.77489C23.735 0.73989 22.24 0.749889 20.75 0.749889C20.7 7.53989 20.75 14.3299 20.725 21.1199C20.555 23.8349 23.145 26.1199 25.775 26.0599C31.905 26.0549 38.035 26.0849 44.165 26.0449C40.795 21.7799 37.3 17.6099 33.855 13.3999C37.345 9.18489 40.915 5.03489 44.295 0.729891ZM13.43 0.73989C13.385 6.11989 13.43 11.4999 13.41 16.8799C13.39 18.2849 13.57 19.7449 13.09 21.0999C12.4767 21.318 11.831 21.4313 11.18 21.4349C7.45 21.4249 3.73 21.4249 0 21.4249V26.0599C4.37 26.0499 8.74 26.0799 13.11 26.0499C15.85 26.0099 18.21 23.4549 18.05 20.7249C18.03 14.0749 18.075 7.41989 18.03 0.764891C16.495 0.734891 14.965 0.73989 13.43 0.73989ZM0 0.749889V18.7999H4.62V0.749889H0ZM104.1 8.11489C104.055 9.57489 103.915 11.0249 103.96 12.4899C107.52 12.4749 111.085 12.5099 114.65 12.4699C115.02 12.9849 115.8 13.3799 115.67 14.1249C115.54 16.5149 115.995 18.9799 115.34 21.3099C111.57 21.7649 107.75 21.2199 103.97 21.6599C103.95 23.0949 103.92 24.5349 104.095 25.9599C107 25.8399 109.91 25.9299 112.815 25.9049C114.345 25.8649 116.03 26.1649 117.38 25.2549C119.13 24.5799 120.055 22.5349 119.995 20.7399C119.97 17.7099 120.03 14.6749 119.955 11.6399L119.58 11.7249C119.65 11.1299 119.355 10.6249 119.13 10.1049L118.905 10.1649C118.81 9.64989 118.5 9.34989 117.975 9.26989L118.06 9.00989C117.525 8.81489 117.01 8.55489 116.425 8.53489L116.525 8.20489C112.38 8.08489 108.24 8.24989 104.1 8.11489ZM69.81 8.12489C69.725 9.57989 69.655 11.0349 69.695 12.4899C72.865 12.4599 76.04 12.5399 79.205 12.4449L79.145 12.7099C80.025 12.8949 79.945 13.8599 79.995 14.5549C80.01 16.8799 79.99 19.2049 79.995 21.5349C75.105 21.6749 70.185 21.2199 65.305 21.6649C64.9624 21.3171 64.5634 21.0297 64.125 20.8149C64.0767 18.1434 64.0783 15.4713 64.13 12.7999C62.7 12.8849 60.96 12.1599 59.72 12.9649C59.515 15.7099 59.96 18.4899 59.42 21.2049C58.745 21.3549 58.06 21.5049 57.365 21.4999C52.88 21.5249 48.39 21.3799 43.915 21.6249C45.39 22.8449 46.39 24.5199 47.705 25.9049H58.915C60.245 25.9899 61.365 25.0799 62.69 25.1049L62.525 25.5549C63.37 25.7049 64.21 25.9149 65.075 25.9049H97.21L97.185 25.6049L98.465 25.3899C99.245 24.7949 99.945 24.1049 100.535 23.3149L100.755 22.0449L101.06 22.0549C101.085 18.9699 101.01 15.8799 101.105 12.7949C99.67 12.7699 98.21 12.4349 96.8 12.7549C96.25 15.5649 97.115 18.5049 96.45 21.2999C92.46 21.7099 88.44 21.4149 84.44 21.4749C84.32 18.0749 84.69 14.6549 84.115 11.2849L83.63 11.3199L83.915 10.6299L83.485 10.5399C83.3394 10.1585 83.115 9.81221 82.8263 9.52357C82.5377 9.23493 82.1914 9.01047 81.81 8.86489L81.745 8.64489C80.96 8.41489 80.175 8.13989 79.345 8.16989C76.17 8.14989 72.99 8.21489 69.81 8.12489ZM50.64 28.7699C50.1098 28.7562 49.5809 28.8306 49.075 28.9899C48.655 30.3099 48.955 31.8649 49.035 33.2699C50.465 33.1999 51.9 33.2099 53.335 33.2399C53.3 31.8099 53.3 30.3799 53.35 28.9499C52.47 28.9299 51.54 28.7749 50.64 28.7699ZM90.73 28.7999C89.3 28.9499 87.855 28.9299 86.42 28.9499C86.48 30.3749 86.47 31.8099 86.445 33.2449C87.88 33.2099 89.315 33.2049 90.75 33.2699C90.7183 31.7801 90.7116 30.2899 90.73 28.7999ZM58.065 28.7999C56.97 28.8049 55.88 28.8649 54.785 28.9249C54.85 30.3749 54.84 31.8199 54.805 33.2649C56.255 33.1999 57.715 33.1999 59.175 33.2649C59.145 31.7817 59.14 30.2982 59.16 28.8149C58.7934 28.8048 58.4317 28.7998 58.065 28.7999ZM93.87 28.8199C93.3383 28.8141 92.8074 28.861 92.285 28.9599C92.335 30.3799 92.325 31.8049 92.315 33.2249C93.71 33.2149 95.105 33.2099 96.505 33.2599C96.57 31.8199 96.605 30.3849 96.53 28.9449C95.645 28.9249 94.76 28.8199 93.87 28.8199ZM76.46 28.8549C76.0864 28.8577 75.7137 28.8894 75.345 28.9499C75.385 30.3749 75.38 31.7999 75.37 33.2299C76.85 33.2199 78.33 33.2199 79.81 33.2249C79.805 31.8049 79.795 30.3849 79.825 28.9649C78.705 29.0149 77.58 28.8399 76.46 28.8549Z" fill="#7D7D7D"/>
</svg>
