<svg width="120" height="36" viewBox="0 0 120 36" fill="none" xmlns="http://www.w3.org/2000/svg">
<path d="M10.07 0.780029C4.81999 0.780029 1.02999 4.25503 1.02999 9.58003C1.02999 14.655 3.84499 15.77 8.12499 16.985C9.58499 17.405 12.26 18.065 12.26 19.975C12.26 21.82 10.56 22.62 8.95999 22.62C6.62999 22.62 4.60999 21.4 2.90999 19.905L-1.19638e-05 25.365C-0.00460445 25.3753 -0.0056222 25.3867 -0.00290162 25.3976C-0.000181042 25.4085 0.00611983 25.4182 0.014988 25.425C2.70371 27.3248 5.90798 28.3592 9.19999 28.39C11.84 28.39 14.59 27.66 16.64 25.92C18.725 24.15 19.355 21.47 19.355 18.865C19.355 14.62 16.535 12.775 12.885 11.7L11.145 11.18C9.96499 10.795 8.11999 10.205 8.11999 8.67503C8.11999 7.21503 9.78999 6.48503 11.04 6.48503C11.66 6.48503 12.27 6.58003 12.85 6.75003C13.6936 7.00154 14.5986 6.95031 15.4085 6.60519C16.2183 6.26006 16.8821 5.64275 17.285 4.86003L18.255 2.97503C18.2591 2.96426 18.2593 2.9524 18.2557 2.94147C18.252 2.93053 18.2447 2.92119 18.235 2.91503C15.7202 1.5638 12.9244 0.831877 10.07 0.780029ZM107.345 1.48003V1.80503H107.87V3.19003H108.28V1.80503H108.805V1.47503L107.345 1.48003ZM109.015 1.48003V3.19003H109.385V1.80503H109.395L109.895 3.19003H110.115L110.615 1.80503H110.62V3.19003H110.995V1.47503H110.395L110 2.49003L109.615 1.47503L109.015 1.48003ZM113.5 1.48003L109.215 17.95H112.78C113.619 17.95 114.435 17.671 115.098 17.1569C115.762 16.6428 116.235 15.9228 116.445 15.11L120 1.47503L113.5 1.48003ZM32.675 9.26003C30.215 9.26003 28.445 9.98503 26.985 12.125C26.975 12.135 26.965 12.145 26.945 12.145C26.9331 12.145 26.9216 12.1403 26.9132 12.1318C26.9047 12.1234 26.9 12.112 26.9 12.1V9.90003C26.9007 9.89372 26.9001 9.88732 26.8981 9.88127C26.8962 9.87522 26.893 9.86965 26.8887 9.86493C26.8845 9.8602 26.8793 9.85643 26.8734 9.85386C26.8676 9.8513 26.8613 9.84999 26.855 9.85003H20.62C20.6132 9.84923 20.6064 9.84997 20.5999 9.85219C20.5935 9.85442 20.5877 9.85808 20.5829 9.8629C20.578 9.86771 20.5744 9.87355 20.5722 9.87998C20.5699 9.88642 20.5692 9.89327 20.57 9.90003V27.65C20.57 27.67 20.595 27.69 20.62 27.69H23.135C24.1331 27.6887 25.09 27.2916 25.7958 26.5858C26.5016 25.88 26.8987 24.9232 26.9 23.925V18.44C26.9 16.215 27.63 14.3 30.205 14.3C33.335 14.3 33.055 17.29 33.055 19V27.65C33.055 27.67 33.075 27.69 33.105 27.69H35.62C36.619 27.6887 37.5766 27.2909 38.2826 26.5841C38.9885 25.8772 39.385 24.919 39.385 23.92V16.67C39.385 12.285 37.475 9.26003 32.675 9.26003ZM49.525 9.26003C44.24 9.26003 40.59 13.64 40.59 18.755C40.59 23.865 44.31 28.285 49.595 28.285C51.675 28.285 53.855 27.485 54.975 25.73C54.985 25.715 54.995 25.71 55.01 25.71C55.035 25.71 55.055 25.73 55.055 25.755V27.645C55.055 27.67 55.075 27.695 55.1 27.695H57.615C58.6149 27.695 59.5738 27.2978 60.2808 26.5908C60.9878 25.8838 61.385 24.9249 61.385 23.925V9.90003C61.385 9.89368 61.3837 9.88739 61.3812 9.88157C61.3786 9.87576 61.3748 9.87056 61.3701 9.8663C61.3654 9.86205 61.3598 9.85885 61.3538 9.85691C61.3477 9.85496 61.3413 9.85433 61.335 9.85503H55.1C55.0932 9.85423 55.0864 9.85497 55.0799 9.8572C55.0735 9.85943 55.0677 9.86308 55.0629 9.8679C55.058 9.87271 55.0544 9.87855 55.0522 9.88498C55.0499 9.89141 55.0492 9.89827 55.05 9.90503V11.475C55.05 11.515 55 11.535 54.975 11.505C53.65 10.005 51.535 9.26503 49.525 9.26503V9.26003ZM75.11 9.26003C73.03 9.26003 70.885 10.09 69.735 11.85C69.725 11.86 69.71 11.87 69.695 11.87C69.6882 11.8708 69.6814 11.8701 69.6749 11.8679C69.6685 11.8656 69.6627 11.862 69.6579 11.8572C69.653 11.8524 69.6494 11.8465 69.6472 11.8401C69.6449 11.8336 69.6442 11.8268 69.645 11.82V9.85003H63.32V35.215H65.88C66.8799 35.215 67.8388 34.8178 68.5458 34.1108C69.2528 33.4038 69.65 32.4449 69.65 31.445V26.005C69.65 26 69.65 25.995 69.66 26C71.015 27.555 73.13 28.285 75.18 28.285C80.465 28.285 84.115 23.97 84.115 18.825C84.115 13.71 80.43 9.26003 75.11 9.26003ZM97.09 9.26003C95.01 9.26003 92.865 10.09 91.71 11.85C91.7 11.86 91.69 11.87 91.67 11.87C91.6636 11.8701 91.6574 11.8688 91.6515 11.8662C91.6457 11.8636 91.6405 11.8599 91.6363 11.8551C91.632 11.8504 91.6288 11.8448 91.6269 11.8388C91.6249 11.8327 91.6243 11.8263 91.625 11.82V9.89503C91.625 9.88309 91.6203 9.87165 91.6118 9.86321C91.6034 9.85477 91.5919 9.85003 91.58 9.85003H85.35C85.3432 9.84923 85.3364 9.84997 85.33 9.85219C85.3235 9.85442 85.3177 9.85808 85.3129 9.8629C85.3081 9.86771 85.3044 9.87355 85.3022 9.87998C85.2999 9.88642 85.2992 9.89327 85.3 9.90003V35.17C85.3 35.195 85.325 35.22 85.35 35.22H87.865C88.3605 35.22 88.8512 35.1224 89.3089 34.9326C89.7666 34.7428 90.1824 34.4647 90.5326 34.1141C90.8827 33.7635 91.1603 33.3473 91.3495 32.8893C91.5386 32.4313 91.6357 31.9405 91.635 31.445V26.105C91.635 26.065 91.685 26.045 91.71 26.075C93.07 27.575 95.15 28.28 97.16 28.28C102.45 28.28 106.1 23.97 106.1 18.825C106.1 13.71 102.415 9.26003 97.095 9.26003H97.09ZM51.195 14.755C53.77 14.755 55.265 16.6 55.265 18.79C55.265 21.05 53.77 22.79 51.195 22.79C48.625 22.79 47.13 21.05 47.13 18.79C47.13 16.6 48.625 14.755 51.195 14.755ZM73.51 14.755C76.085 14.755 77.58 16.6 77.58 18.79C77.58 21.05 76.085 22.79 73.51 22.79C70.935 22.79 69.44 21.05 69.44 18.79C69.44 16.6 70.94 14.755 73.51 14.755ZM95.49 14.755C98.065 14.755 99.56 16.6 99.56 18.79C99.56 21.05 98.06 22.79 95.49 22.79C92.915 22.79 91.42 21.05 91.42 18.79C91.42 16.6 92.92 14.755 95.49 14.755ZM111.355 20.275C110.293 20.275 109.274 20.697 108.523 21.4481C107.772 22.1992 107.35 23.2178 107.35 24.28C107.35 25.3422 107.772 26.3609 108.523 27.112C109.274 27.8631 110.293 28.285 111.355 28.285C112.417 28.285 113.436 27.8631 114.187 27.112C114.938 26.3609 115.36 25.3422 115.36 24.28C115.36 23.2178 114.938 22.1992 114.187 21.4481C113.436 20.697 112.417 20.275 111.355 20.275Z" fill="#7D7D7D"/>
</svg>
