<svg width="96" height="100" viewBox="0 0 96 100" fill="none" xmlns="http://www.w3.org/2000/svg">
<path d="M47.55 99.7917C43.4875 99.4958 40.9417 99.0833 37.5 98.175C36.2 97.8292 33.0417 96.8 32.3167 96.475C32.0751 96.3701 31.832 96.2687 31.5875 96.1708L30.925 95.9042C29.1201 95.1144 27.3542 94.2384 25.6333 93.2792C15.95 87.6958 8.41668 79.2708 4.16251 69.2625C3.201 66.9131 2.38828 64.5056 1.72918 62.0542C1.15418 59.6125 1.06251 59.0917 0.508343 55.35C0.266676 53.7 0.270843 46.2125 0.512509 44.4417C0.945843 41.3333 0.983343 41.1042 1.42918 39.1333C2.62918 33.7583 4.81668 28.4083 7.72084 23.7458C8.61668 22.3125 11.0458 18.9708 12.0042 17.8625C14.5727 14.923 17.4347 12.2536 20.5458 9.89583C24.4208 6.9875 30.1042 4.0125 34.5125 2.58333C38.2024 1.36427 42.0136 0.548403 45.8792 0.15C47.6167 -0.05 54.0875 -0.05 55.9625 0.15C58.6958 0.441667 59.6417 0.7875 60.6625 1.86667C61.5417 2.8 61.8167 3.55417 61.8208 5.04583C61.8208 6.19583 61.7708 6.4625 61.4333 7.09583C61.0995 7.72544 60.6381 8.27852 60.0785 8.71974C59.5189 9.16096 58.8734 9.48063 58.1833 9.65833C57.5833 9.825 57.25 9.825 56.0583 9.65C54.225 9.37917 47.5167 9.37083 45.8625 9.6375C42.7125 10.1375 41.6958 10.3542 39.1958 11.0333C35.0542 12.1583 29.8792 14.7292 26.2 17.4833C24.6375 18.65 24.2917 18.9417 22.8833 20.2083C17.3448 25.2607 13.3126 31.7473 11.2333 38.95L10.9333 39.975C10.7003 40.8948 10.5029 41.8233 10.3417 42.7583C9.76483 45.8365 9.56614 48.9736 9.75001 52.1C9.92084 54.3375 10.1375 56.175 10.35 57.1833L10.6458 58.65C10.7417 59.1333 10.8708 59.6917 10.9375 59.8917L11.2333 60.9167C12.2792 64.6375 13.8583 68.1083 16.1292 71.6833C16.6458 72.4917 18.075 74.5167 18.2542 74.6833C18.2958 74.725 18.5875 75.0875 18.9083 75.4875C20.9833 78.125 25.0958 81.7667 28.4333 83.9292C32.1 86.3042 37.4458 88.5833 41.175 89.35L42.5667 89.6417C49.7679 91.1462 57.2454 90.6226 64.1667 88.1292C65.9542 87.475 66.3292 87.3083 68.8542 86.0333C71.5815 84.6779 74.1453 83.0157 76.4958 81.0792C79.1583 78.8917 79.4667 78.6708 80.3167 78.3458C81.575 77.8667 82.6625 77.9625 84.1292 78.6792C85.825 79.5042 86.9792 81.9708 86.4917 83.7208C86.125 85.0375 85.7708 85.5125 84.1167 86.9417C79.8214 90.6432 74.9974 93.6823 69.8042 95.9583C66.0542 97.625 60.7875 99.075 56.7 99.5708C55.2583 99.7458 51.125 100.029 50.5 100C50.2833 99.9875 48.9583 99.8958 47.5458 99.7917H47.55ZM43.375 66.4917C40.8875 65.8875 39.2167 63.2083 39.7875 60.7417C40.1208 59.3042 41.0833 58.075 42.4208 57.375L43.0833 57.0333L50.2042 56.9917C57.0375 56.9542 57.3583 56.9625 58.1167 57.2458C59.1083 57.6208 60.1583 58.6375 60.675 59.725C61.125 60.675 61.2167 62.1708 60.9 63.2708C60.475 64.7208 58.95 66.1542 57.5 66.4667C56.6667 66.6458 44.1042 66.6667 43.375 66.4875V66.4917ZM32.0958 54.4167C31.4925 54.1876 30.9403 53.8415 30.471 53.3984C30.0018 52.9553 29.6247 52.4238 29.3614 51.8346C29.0982 51.2453 28.9539 50.6098 28.9369 49.9647C28.9199 49.3195 29.0306 48.6773 29.2625 48.075C29.6417 47.0625 30.7375 45.9042 31.7667 45.425L32.4625 45.1H68.375L69.125 45.475C70.0917 45.9583 70.9 46.7375 71.3958 47.6625C71.7417 48.3167 71.7833 48.5542 71.7833 49.8583C71.7833 51.1625 71.7417 51.4042 71.3917 52.0667C70.7987 53.1687 69.817 54.0108 68.6375 54.4292C67.9333 54.6792 32.7708 54.6708 32.0958 54.4167ZM42.8042 42.3833C40.8292 41.65 39.4458 39.375 39.6958 37.2708C39.8167 36.2458 40.55 34.8292 41.3083 34.1625C41.6583 33.8542 42.2958 33.4708 42.7292 33.3125C43.4792 33.0333 43.8833 33.0208 50.55 33.0208H57.5792L58.4083 33.425C59.4083 33.9167 60.1875 34.7458 60.7 35.8583C61.0167 36.525 61.0833 36.8958 61.0833 37.85C61.0833 39.7083 60.3125 41.0667 58.7208 42.0292L57.8875 42.5375L50.6292 42.5667C44.6042 42.5917 43.2792 42.5583 42.8042 42.3833ZM90.0917 34.2C89.1055 33.9955 88.2131 33.4747 87.55 32.7167C85.2667 30.125 86.4 26.2167 89.7583 25.1C91.8042 24.4167 94.35 25.6292 95.3167 27.7458C95.8167 28.8375 95.7833 30.5208 95.2375 31.65C94.3208 33.5667 92.075 34.6792 90.0917 34.2ZM81.45 22.4167C80.7831 22.2224 80.1628 21.8942 79.627 21.4522C79.0911 21.0102 78.6509 20.4636 78.3333 19.8458C78.0083 19.2208 77.9458 18.9083 77.9417 17.8583C77.9375 16.7833 77.9917 16.5 78.3458 15.775C80.0417 12.325 85.0542 12.325 86.75 15.775C87.325 16.9417 87.3333 18.5792 86.7833 19.7625C86.4378 20.5334 85.8878 21.1949 85.1929 21.6753C84.4981 22.1557 83.6849 22.4366 82.8417 22.4875C82.3766 22.5159 81.9098 22.4922 81.45 22.4167ZM69.8083 13.85C67.9167 13.3042 66.725 12.0458 66.3458 10.1917C65.8375 7.74167 67.2917 5.45833 69.8583 4.67083C71.6708 4.11667 74.1583 5.33333 75.1167 7.24167C75.421 7.90713 75.5729 8.63213 75.5614 9.36378C75.5498 10.0954 75.3751 10.8153 75.05 11.4708C74.1125 13.3083 71.7083 14.4042 69.8083 13.85Z" fill="#7D7D7D"/>
</svg>
